<svg xmlns="http://www.w3.org/2000/svg" width="384.005" height="512.002" viewBox="0 0 384.005 512.002">
  <path id="award" d="M192,95.95a96,96,0,1,0,96,96,96.115,96.115,0,0,0-96-96Zm0,160a64,64,0,1,1,64-64A64.072,64.072,0,0,1,192,255.95Zm175.63,16.38a57.709,57.709,0,0,0,14.47-54.86c-6.39-24.2-6.39-20.45,0-44.69a57.7,57.7,0,0,0-14.47-54.86c-17.58-17.72-15.57-14.69-21.91-38.59A56.673,56.673,0,0,0,306,38.99c-23.3-6.32-20.62-4.58-37.75-22.22A56.114,56.114,0,0,0,213.72,1.95c-23.5,6.51-20.1,6.41-43.47,0a55.991,55.991,0,0,0-54.5,14.85c-17.3,17.67-14.21,15.77-37.72,22.19A56.7,56.7,0,0,0,38.28,79.31c-6.36,24.04-4.38,20.87-21.91,38.62A57.7,57.7,0,0,0,1.91,172.8c6.39,24.17,6.39,20.42,0,44.69a57.7,57.7,0,0,0,14.47,54.86c17.58,17.72,15.57,14.69,21.91,38.59a56.6,56.6,0,0,0,10.62,20.38L1.2,448.7a16,16,0,0,0,14.79,22.04c.55,0-2.91.12,53.32-2.03L105.56,507A16,16,0,0,0,132,502.04l52.45-129.03a23.346,23.346,0,0,1,15.11-.01L252,502.04A16,16,0,0,0,278.44,507l36.25-38.28c56.23,2.15,52.77,2.03,53.32,2.03a16,16,0,0,0,14.79-22.04L335.1,331.34a56.636,56.636,0,0,0,10.62-20.37c6.36-24.06,4.38-20.89,21.91-38.64ZM111.72,466.95c-22.59-23.86-16.56-17.49-29.13-30.77-18.3.7-9.45.36-42.41,1.63l35.55-87.48c.79.26,1.47.75,2.28.97,21.87,5.86,20.46,4.6,31.59,15.91a55.5,55.5,0,0,0,35.96,16.5ZM343.83,437.8c-32.91-1.26-24.13-.92-42.41-1.62-12.56,13.27-6.54,6.91-29.13,30.77l-33.9-83.4a55.322,55.322,0,0,0,36.02-16.35c11.41-11.61,9.83-10.19,31.59-15.91.81-.22,1.49-.71,2.28-.96l35.55,87.47ZM314.78,302.81a24.658,24.658,0,0,1-17.22,17.61c-23.62,6.25-28.39,6.45-45.97,24.37a23.563,23.563,0,0,1-29.75,3.48,56.135,56.135,0,0,0-59.69.02,23.667,23.667,0,0,1-29.75-3.52c-17.38-17.68-22.12-17.95-45.97-24.36a24.655,24.655,0,0,1-17.22-17.62c-8.06-30.63-7.53-30.19-30.03-52.87a25.542,25.542,0,0,1-6.34-24.31c8.15-30.47,8.2-30.48,0-60.95a25.566,25.566,0,0,1,6.34-24.3c22.42-22.7,21.94-22.06,30.03-52.91A24.6,24.6,0,0,1,86.43,69.86c30.79-8.41,29.68-7.8,52.13-30.62a23.873,23.873,0,0,1,23.28-6.41c30.46,8.38,29.85,8.4,60.28,0a24.011,24.011,0,0,1,23.31,6.37c22.29,22.87,21.87,22.44,52.16,30.66a24.655,24.655,0,0,1,17.19,17.61c8.06,30.63,7.53,30.19,30.03,52.87a25.542,25.542,0,0,1,6.34,24.31c-8.19,30.52-8.16,30.54,0,60.95a25.566,25.566,0,0,1-6.34,24.3c-22.41,22.71-21.94,22.06-30.03,52.91Z" transform="translate(0.003 0.002)" fill="#fff"/>
</svg>
