<svg xmlns="http://www.w3.org/2000/svg" width="576.005" height="384" viewBox="0 0 576.005 384">
  <path id="coffee" d="M517.9,448H26.1C1.6,448-7,416,6.1,416H537.9c13.1,0,4.5,32-20,32ZM576,159.1A96.029,96.029,0,0,1,480,256H448v32a96.025,96.025,0,0,1-96,96H160a96.025,96.025,0,0,1-96-96V76A12.035,12.035,0,0,1,76,64H478.8C531.6,64,575.5,106.2,576,159.1ZM416,96H96V288a64.059,64.059,0,0,0,64,64H352a64.059,64.059,0,0,0,64-64Zm128,64a64.059,64.059,0,0,0-64-64H448V224h32A64.059,64.059,0,0,0,544,160Z" transform="translate(0.001 -64)" fill="#fff"/>
</svg>
