<svg xmlns="http://www.w3.org/2000/svg" width="384" height="512" viewBox="0 0 384 512">
  <path id="fire" d="M216,24.01c0-23.8-31.16-33.11-44.15-13.04C76.55,158.25,200,238.73,200,288a40,40,0,0,1-80,0V182.13c0-19.39-21.85-30.76-37.73-19.68A192.226,192.226,0,0,0,0,320C0,425.87,86.13,512,192,512s192-86.13,192-192c0-170.29-168-192.85-168-295.99ZM192,480c-88.22,0-160-71.78-160-160,0-46.94,20.68-97.75,56-128v96a72,72,0,0,0,144,0c0-65.11-112-128-45.41-248C208,160,352,175.3,352,320,352,408.22,280.22,480,192,480Z" transform="translate(0 0)" fill="#fff"/>
</svg>
