<svg xmlns="http://www.w3.org/2000/svg" width="38.1" height="38.1" viewBox="0 0 38.1 38.1"><path d="M12.744,38.678c0,.158-.177.284-.4.284-.253.024-.43-.1-.43-.284,0-.158.177-.284.4-.284C12.544,38.371,12.744,38.5,12.744,38.678Zm-2.389-.355c-.054.158.1.339.33.386a.356.356,0,0,0,.476-.158c.046-.158-.1-.339-.33-.41A.39.39,0,0,0,10.355,38.324Zm3.4-.134c-.223.055-.376.2-.353.386.023.158.223.26.453.2s.376-.2.353-.362S13.973,38.166,13.75,38.19ZM18.8,8C8.15,8,0,16.3,0,27.223A19.723,19.723,0,0,0,13.02,46.068c.983.181,1.329-.441,1.329-.953,0-.488-.023-3.183-.023-4.837,0,0-5.377,1.182-6.506-2.348,0,0-.876-2.293-2.135-2.883,0,0-1.759-1.237.123-1.213a4.038,4.038,0,0,1,2.965,2.033,4,4,0,0,0,5.6,1.647A4.422,4.422,0,0,1,15.6,34.857c-4.294-.488-8.626-1.127-8.626-8.706a6.05,6.05,0,0,1,1.813-4.64,7.621,7.621,0,0,1,.2-5.349c1.605-.512,5.3,2.127,5.3,2.127a17.71,17.71,0,0,1,9.648,0s3.695-2.647,5.3-2.127a7.618,7.618,0,0,1,.2,5.349,6.2,6.2,0,0,1,1.982,4.64c0,7.6-4.524,8.209-8.818,8.706A4.723,4.723,0,0,1,23.9,38.513c0,2.655-.023,5.94-.023,6.586,0,.512.353,1.134,1.329.953C32.892,43.437,38.1,35.96,38.1,27.223A19.065,19.065,0,0,0,18.8,8ZM7.466,35.172c-.1.079-.077.26.054.41.123.126.3.181.4.079.1-.079.077-.26-.054-.41C7.743,35.125,7.566,35.07,7.466,35.172Zm-.83-.638c-.054.1.023.228.177.307a.225.225,0,0,0,.33-.055c.054-.1-.023-.228-.177-.307C6.813,34.432,6.691,34.455,6.637,34.534Zm2.489,2.8c-.123.1-.077.339.1.488.177.181.4.2.5.079.1-.1.054-.339-.1-.488C9.456,37.236,9.225,37.213,9.126,37.339ZM8.25,36.181c-.123.079-.123.284,0,.465s.33.26.43.181a.366.366,0,0,0,0-.488c-.108-.181-.307-.26-.43-.158Z" transform="translate(0 -8)" fill="#fff"/></svg>