<svg xmlns="http://www.w3.org/2000/svg" width="38.095" height="38.1" viewBox="0 0 38.095 38.1"><path d="M35.374,32H2.713A2.733,2.733,0,0,0,0,34.747V67.353A2.733,2.733,0,0,0,2.713,70.1H35.374A2.74,2.74,0,0,0,38.1,67.353V34.747A2.74,2.74,0,0,0,35.374,32ZM11.514,64.657H5.867V46.475h5.655V64.657ZM8.69,43.991a3.274,3.274,0,1,1,3.274-3.274A3.275,3.275,0,0,1,8.69,43.991ZM32.679,64.657H27.032V55.813c0-2.109-.043-4.822-2.934-4.822-2.942,0-3.393,2.3-3.393,4.669v9H15.06V46.475h5.417v2.483h.077A5.947,5.947,0,0,1,25.9,46.024c5.714,0,6.777,3.767,6.777,8.666Z" transform="translate(0 -32)" fill="#fff"/></svg>