<svg xmlns="http://www.w3.org/2000/svg" width="640" height="448" viewBox="0 0 640 448">
  <path id="user-friends" d="M480,256a96,96,0,1,0-96-96A96.025,96.025,0,0,0,480,256Zm0-160a64,64,0,1,1-64,64A64.059,64.059,0,0,1,480,96ZM192,256A112,112,0,1,0,80,144,111.944,111.944,0,0,0,192,256Zm0-192a80,80,0,1,1-80,80A80.106,80.106,0,0,1,192,64Zm80.1,212c-33.4,0-41.7,12-80.1,12s-46.7-12-80.1-12c-36.3,0-71.6,16.2-92.3,46.9A114.593,114.593,0,0,0,0,387.2V432a48.012,48.012,0,0,0,48,48H336a48.012,48.012,0,0,0,48-48V387.2a114.593,114.593,0,0,0-19.6-64.3c-20.7-30.7-56-46.9-92.3-46.9ZM352,432a16.047,16.047,0,0,1-16,16H48a16.047,16.047,0,0,1-16-16V387.2a83.08,83.08,0,0,1,14.1-46.4C59.9,320.3,84.5,308,111.8,308c27.4,0,37.2,12,80.2,12s52.8-12,80.1-12,51.9,12.3,65.7,32.8a83.08,83.08,0,0,1,14.1,46.4V432ZM623.7,317.1C606.4,291.5,577,278,546.8,278,519,278,512,288,480,288s-39-10-66.8-10a97.533,97.533,0,0,0-38.1,8.1c15.2,15.4,18.5,23.6,20.2,26.6a65.616,65.616,0,0,1,17.9-2.6c21.8,0,30,10,66.8,10s45-10,66.8-10c21,0,39.8,9.3,50.4,25a63.637,63.637,0,0,1,10.9,35.7V408a8.024,8.024,0,0,1-8,8H416c0,17.7.3,22.5-1.6,32H600a39.989,39.989,0,0,0,40-40V370.7A95.54,95.54,0,0,0,623.7,317.1Z" transform="translate(0 -32)" fill="#fff"/>
</svg>
